HIERARCHY
ROOT Hips
{
	OFFSET 0.000000 0.000000 0.000000
	CHANNELS 6 Xposition Yposition Zposition Xrotation Yrotation Zrotation
	JOINT LeftUpLeg_virtual
	{
		OFFSET 0.000000 0.000000 0.000000
		CHANNELS 3 Xrotation Yrotation Zrotation
		JOINT LeftUpLeg
		{
			OFFSET 15.427100 -6.655098 0.678600
			CHANNELS 3 Xrotation Yrotation Zrotation
			JOINT LeftLeg
			{
				OFFSET 4.081073 -39.591068 13.024000
				CHANNELS 3 Xrotation Yrotation Zrotation
				JOINT LeftFoot
				{
					OFFSET -4.081074 -37.707932 -15.979700
					CHANNELS 3 Xrotation Yrotation Zrotation
					JOINT LeftToeBase
					{
						OFFSET 5.346399 -15.068900 20.645000
						CHANNELS 3 Xrotation Yrotation Zrotation
						JOINT LeftToe_End
						{
							OFFSET 2.754700 0.931300 11.300900
							CHANNELS 3 Xrotation Yrotation Zrotation
							End Site
							{
								OFFSET 0 0 0
							}
						}
					}
				}
			}
		}
	}
	JOINT RightUpLeg_virtual
	{
		OFFSET 0.000000 0.000000 0.000000
		CHANNELS 3 Xrotation Yrotation Zrotation
		JOINT RightUpLeg
		{
			OFFSET -15.569500 -6.655098 0.678600
			CHANNELS 3 Xrotation Yrotation Zrotation
			JOINT RightLeg
			{
				OFFSET -4.081825 -39.591045 13.023800
				CHANNELS 3 Xrotation Yrotation Zrotation
				JOINT RightFoot
				{
					OFFSET 4.081824 -37.707954 -15.979600
					CHANNELS 3 Xrotation Yrotation Zrotation
					JOINT RightToeBase
					{
						OFFSET -5.346400 -15.068900 20.645000
						CHANNELS 3 Xrotation Yrotation Zrotation
						JOINT RightToe_End
						{
							OFFSET -2.754700 0.931300 11.300900
							CHANNELS 3 Xrotation Yrotation Zrotation
							End Site
							{
								OFFSET 0 0 0
							}
						}
					}
				}
			}
		}
	}
	JOINT Spine_virtual
	{
		OFFSET 0.000000 0.000000 0.000000
		CHANNELS 3 Xrotation Yrotation Zrotation
		JOINT Spine
		{
			OFFSET -0.279200 12.230698 -2.892100
			CHANNELS 3 Xrotation Yrotation Zrotation
			JOINT Spine1
			{
				OFFSET -0.232667 10.192268 -1.242267
				CHANNELS 3 Xrotation Yrotation Zrotation
				JOINT Spine1_split
				{
					OFFSET -0.232667 10.192268 -1.242267
					CHANNELS 3 Xrotation Yrotation Zrotation
					JOINT Spine2
					{
						OFFSET -0.232667 10.192268 -1.242267
						CHANNELS 3 Xrotation Yrotation Zrotation
						JOINT Neck_virtual
						{
							OFFSET 0.000000 0.000000 0.000000
							CHANNELS 3 Xrotation Yrotation Zrotation
							JOINT Neck
							{
								OFFSET -0.418800 17.814194 8.416900
								CHANNELS 3 Xrotation Yrotation Zrotation
								JOINT Head
								{
									OFFSET 0.000000 7.031097 3.806800
									CHANNELS 3 Xrotation Yrotation Zrotation
									JOINT HeadTop_End
									{
										OFFSET 0.000000 24.646606 12.978600
										CHANNELS 3 Xrotation Yrotation Zrotation
										End Site
										{
											OFFSET 0 0 0
										}
									}
								}
							}
						}
						JOINT LeftShoulder_virtual
						{
							OFFSET 0.000000 0.000000 0.000000
							CHANNELS 3 Xrotation Yrotation Zrotation
							JOINT LeftShoulder
							{
								OFFSET 8.476499 7.247704 -3.868750
								CHANNELS 3 Xrotation Yrotation Zrotation
								JOINT LeftShoulder_split
								{
									OFFSET 8.476499 7.247704 -3.868750
									CHANNELS 3 Xrotation Yrotation Zrotation
									JOINT LeftArm
									{
										OFFSET 9.308998 -2.777710 0.208600
										CHANNELS 3 Xrotation Yrotation Zrotation
										JOINT LeftForeArm
										{
											OFFSET 29.972298 0.000000 0.000000
											CHANNELS 3 Xrotation Yrotation Zrotation
											JOINT LeftHand
											{
												OFFSET 26.026505 0.000000 0.000000
												CHANNELS 3 Xrotation Yrotation Zrotation
												End Site
												{
													OFFSET 0 0 0
												}
											}
										}
									}
								}
							}
						}
						JOINT RightShoulder_virtual
						{
							OFFSET 0.000000 0.000000 0.000000
							CHANNELS 3 Xrotation Yrotation Zrotation
							JOINT RightShoulder
							{
								OFFSET -7.570500 7.247704 -3.868750
								CHANNELS 3 Xrotation Yrotation Zrotation
								JOINT RightShoulder_split
								{
									OFFSET -7.570500 7.247704 -3.868750
									CHANNELS 3 Xrotation Yrotation Zrotation
									JOINT RightArm
									{
										OFFSET -9.308998 -2.777710 0.208500
										CHANNELS 3 Xrotation Yrotation Zrotation
										JOINT RightForeArm
										{
											OFFSET -29.972300 0.000000 0.000000
											CHANNELS 3 Xrotation Yrotation Zrotation
											JOINT RightHand
											{
												OFFSET -26.026505 0.000000 0.000000
												CHANNELS 3 Xrotation Yrotation Zrotation
												End Site
												{
													OFFSET 0 0 0
												}
											}
										}
									}
								}
							}
						}
					}
				}
			}
		}
	}
}
MOTION
Frames: 8
Frame Time: 0.03333333
5.289604 6.876709 13.166428 0.000000 0.000000 0.000000 81.663681 3.150081 -1.917273 11.713071 10.622897 19.676114 16.502338 23.400295 5.780867 31.713736 29.632031 -12.321601 -1.201459 1.864012 12.860914 0.000000 0.000000 0.000000 83.771792 -1.286327 -0.681629 5.258327 -8.355929 -25.978628 2.160666 -8.682354 4.241220 38.344945 -20.505674 22.540654 9.502037 -0.549195 -4.982971 0.000000 0.000000 0.000000 87.201968 -0.745092 0.713948 2.320738 0.349341 -1.566241 0.888845 0.519010 -0.057588 0.380106 -1.026834 0.631367 0.000000 0.000000 0.000000 -0.645805 0.312403 -0.334399 -4.354027 -12.209718 5.481906 -18.650603 -56.021881 -19.859962 0.000000 0.000000 0.000000 0.672647 0.264223 -0.343853 3.460098 -17.221152 -3.005987 -1.307173 -0.586814 -1.413543 22.654609 -20.024446 -56.598462 0.149397 -24.726680 -0.969311 0.000000 0.000000 0.000000 0.351650 0.752794 0.199242 -0.338197 12.556879 11.716789 7.919948 6.562872 -2.728535 6.788327 -10.162977 55.464128 0.512448 28.074538 1.071402 0.000000 0.000000 0.000000 
5.290134 6.874557 13.166286 0.000000 0.000000 0.000000 81.665649 3.147303 -1.915810 11.713809 10.620266 19.674730 16.511798 23.401290 5.774533 31.720027 29.644186 -12.310806 -1.204383 1.865830 12.859248 0.000000 0.000000 0.000000 83.770412 -1.283457 -0.685790 5.253226 -8.354015 -25.978302 2.170520 -8.678667 4.234812 38.336380 -20.497200 22.551871 9.501314 -0.547475 -4.988838 0.000000 0.000000 0.000000 87.199857 -0.747060 0.719922 2.319002 0.348633 -1.563221 0.891720 0.517473 -0.055987 0.369782 -1.025367 0.626810 0.000000 0.000000 0.000000 -0.641570 0.312734 -0.334676 -4.356713 -12.200199 5.475907 -18.647892 -56.008456 -19.863708 0.000000 0.000000 0.000000 0.681007 0.262494 -0.342870 3.464529 -17.240012 -2.991896 -1.310916 -0.561893 -1.418365 22.660773 -20.023174 -56.597126 0.152357 -24.695799 -0.962710 0.000000 0.000000 0.000000 0.353799 0.751608 0.201280 -0.340022 12.554298 11.709681 7.927198 6.587784 -2.734243 6.769764 -10.141793 55.451540 0.527228 28.106589 1.062405 0.000000 0.000000 0.000000 
5.288740 6.872787 13.162701 0.000000 0.000000 0.000000 81.666011 3.145459 -1.919023 11.704800 10.628408 19.680505 16.526476 23.403857 5.771428 31.741265 29.652723 -12.310182 -1.211870 1.867971 12.853544 0.000000 0.000000 0.000000 83.769579 -1.286449 -0.688937 5.251626 -8.337524 -25.972788 2.184017 -8.678496 4.223714 38.326903 -20.489726 22.568828 9.529132 -0.546592 -4.979581 0.000000 0.000000 0.000000 87.200875 -0.750851 0.728208 2.316832 0.350558 -1.554565 0.896879 0.515862 -0.054554 0.361455 -1.028148 0.623731 0.000000 0.000000 0.000000 -0.637776 0.311533 -0.333368 -4.356681 -12.183329 5.465984 -18.622116 -56.003675 -19.862600 0.000000 0.000000 0.000000 0.690025 0.260222 -0.344238 3.469128 -17.282069 -2.984729 -1.317851 -0.549261 -1.424443 22.682020 -20.025193 -56.579385 0.136979 -24.645115 -0.969636 0.000000 0.000000 0.000000 0.359192 0.750203 0.202074 -0.340903 12.555499 11.703539 7.945152 6.612926 -2.745675 6.738589 -10.151713 55.451290 0.552581 28.119361 1.050451 0.000000 0.000000 0.000000 
5.285708 6.872139 13.156979 0.000000 0.000000 0.000000 81.666017 3.145143 -1.927945 11.683373 10.649378 19.694495 16.543594 23.406510 5.769430 31.772367 29.653639 -12.320597 -1.221493 1.869992 12.846462 0.000000 0.000000 0.000000 83.770351 -1.291086 -0.694529 5.250371 -8.308483 -25.964250 2.203940 -8.680245 4.209151 38.319151 -20.482096 22.594114 9.581728 -0.545997 -4.958633 0.000000 0.000000 0.000000 87.204550 -0.757602 0.735296 2.315973 0.354623 -1.541230 0.903519 0.514957 -0.053519 0.362693 -1.041273 0.629004 0.000000 0.000000 0.000000 -0.635177 0.309373 -0.331163 -4.353967 -12.163673 5.456396 -18.580065 -56.007319 -19.857532 0.000000 0.000000 0.000000 0.697804 0.257946 -0.347690 3.474408 -17.345665 -2.981623 -1.321341 -0.544747 -1.436831 22.716934 -20.018999 -56.543810 0.109920 -24.606957 -0.987420 0.000000 0.000000 0.000000 0.366253 0.749339 0.201518 -0.341863 12.557655 11.701347 7.972012 6.638162 -2.756995 6.696716 -10.201785 55.457711 0.583008 28.100889 1.036496 0.000000 0.000000 0.000000 
5.281465 6.872871 13.148777 0.000000 0.000000 0.000000 81.664508 3.148917 -1.942062 11.649287 10.678323 19.714332 16.562958 23.409451 5.766491 31.804499 29.647543 -12.339573 -1.233268 1.871492 12.840190 0.000000 0.000000 0.000000 83.772052 -1.290104 -0.706379 5.244324 -8.273552 -25.958581 2.232343 -8.680446 4.193661 38.317686 -20.466793 22.635619 9.641463 -0.544304 -4.930921 0.000000 0.000000 0.000000 87.211264 -0.765448 0.738929 2.318342 0.360026 -1.524501 0.911338 0.514970 -0.053810 0.368502 -1.058553 0.634866 0.000000 0.000000 0.000000 -0.634156 0.306782 -0.328944 -4.350906 -12.145047 5.450122 -18.536191 -56.016922 -19.853780 0.000000 0.000000 0.000000 0.702882 0.255905 -0.351818 3.481299 -17.427405 -2.976999 -1.312584 -0.534979 -1.448077 22.756584 -20.005110 -56.493963 0.082404 -24.592335 -1.008876 0.000000 0.000000 0.000000 0.373875 0.748585 0.198463 -0.341810 12.555838 11.702092 7.994117 6.652147 -2.774180 6.650820 -10.283062 55.459927 0.613504 28.063439 1.022451 0.000000 0.000000 0.000000 
5.275136 6.873245 13.134968 0.000000 0.000000 0.000000 81.664283 3.161298 -1.961598 11.606976 10.708256 19.736047 16.583243 23.413771 5.761655 31.823856 29.638277 -12.362056 -1.249105 1.872113 12.836640 0.000000 0.000000 0.000000 83.774456 -1.280439 -0.722762 5.228406 -8.240211 -25.960350 2.270110 -8.676038 4.178705 38.325793 -20.439884 22.696386 9.689418 -0.540306 -4.901604 0.000000 0.000000 0.000000 87.218818 -0.767521 0.734893 2.324677 0.365138 -1.506679 0.918723 0.515121 -0.056248 0.375203 -1.078486 0.638478 0.000000 0.000000 0.000000 -0.634303 0.303751 -0.327592 -4.351391 -12.131942 5.448075 -18.497409 -56.032594 -19.852688 0.000000 0.000000 0.000000 0.704931 0.254816 -0.355455 3.490625 -17.523291 -2.968602 -1.288326 -0.516522 -1.456338 22.797549 -19.993897 -56.430705 0.065025 -24.602690 -1.025262 0.000000 0.000000 0.000000 0.381817 0.747406 0.192827 -0.339490 12.547929 11.706783 8.018823 6.653229 -2.796685 6.603320 -10.381992 55.449542 0.639696 28.020598 1.009884 0.000000 0.000000 0.000000 
5.266721 6.872307 13.115459 0.000000 0.000000 0.000000 81.666892 3.187050 -1.987646 11.563307 10.733355 19.750783 16.603939 23.421139 5.754605 31.823760 29.629948 -12.386949 -1.275748 1.871396 12.835722 0.000000 0.000000 0.000000 83.774954 -1.260245 -0.742100 5.200681 -8.216141 -25.971955 2.313642 -8.666229 4.164464 38.338241 -20.404041 22.773077 9.722221 -0.534107 -4.873747 0.000000 0.000000 0.000000 87.225627 -0.759605 0.722437 2.335660 0.369224 -1.489977 0.923833 0.515644 -0.060327 0.379516 -1.091493 0.640789 0.000000 0.000000 0.000000 -0.635394 0.301041 -0.328049 -4.358433 -12.125150 5.449911 -18.462997 -56.049031 -19.853111 0.000000 0.000000 0.000000 0.706687 0.254629 -0.357819 3.502147 -17.623174 -2.954167 -1.262202 -0.493385 -1.463021 22.836048 -19.997423 -56.360197 0.065142 -24.628580 -1.028300 0.000000 0.000000 0.000000 0.389535 0.746400 0.184840 -0.335803 12.538381 11.710230 8.055503 6.643250 -2.818406 6.554723 -10.480617 55.430124 0.659933 27.986017 0.999197 0.000000 0.000000 0.000000 
5.257861 6.867653 13.096340 0.000000 0.000000 0.000000 81.674139 3.224955 -2.015771 11.518735 10.749143 19.756770 16.628855 23.432899 5.744815 31.816459 29.626301 -12.419029 -1.317827 1.869232 12.835047 0.000000 0.000000 0.000000 83.773985 -1.228068 -0.763423 5.161743 -8.206890 -25.993338 2.362392 -8.653897 4.152130 38.345088 -20.368606 22.852722 9.746679 -0.526261 -4.847567 0.000000 0.000000 0.000000 87.231986 -0.737444 0.702937 2.350851 0.371724 -1.475606 0.927443 0.517306 -0.065485 0.375134 -1.095268 0.634720 0.000000 0.000000 0.000000 -0.638397 0.299412 -0.330861 -4.373886 -12.124974 5.451916 -18.430815 -56.063777 -19.852206 0.000000 0.000000 0.000000 0.710685 0.255258 -0.359072 3.515021 -17.723031 -2.936529 -1.233773 -0.475095 -1.464972 22.863333 -20.025136 -56.296700 0.081627 -24.646468 -1.014553 0.000000 0.000000 0.000000 0.397828 0.746550 0.175445 -0.330601 12.537042 11.712177 8.100815 6.622783 -2.843157 6.509153 -10.562444 55.412744 0.674263 27.955551 0.991928 0.000000 0.000000 0.000000 
